<svg xmlns="http://www.w3.org/2000/svg" width="30" height="30" viewBox="0 0 30 30">
  <path id="Icon_awesome-shopping-basket" data-name="Icon awesome-shopping-basket" d="M30,14.571v1.071a1.463,1.463,0,0,1-1.25,1.607h-.417l-1.36,12.24A2.8,2.8,0,0,1,24.5,32.25H5.5a2.8,2.8,0,0,1-2.475-2.76L1.667,17.25H1.25A1.463,1.463,0,0,1,0,15.643V14.571a1.463,1.463,0,0,1,1.25-1.607H4.757l5.561-9.832a1.443,1.443,0,0,1,2.328-.473,2.562,2.562,0,0,1,.368,2.993L8.879,12.964H21.121L16.985,5.653a2.562,2.562,0,0,1,.368-2.993,1.443,1.443,0,0,1,2.328.473l5.561,9.832H28.75A1.463,1.463,0,0,1,30,14.571ZM16.25,26.357v-7.5A1.463,1.463,0,0,0,15,17.25a1.463,1.463,0,0,0-1.25,1.607v7.5A1.463,1.463,0,0,0,15,27.964,1.463,1.463,0,0,0,16.25,26.357Zm5.833,0v-7.5a1.463,1.463,0,0,0-1.25-1.607,1.463,1.463,0,0,0-1.25,1.607v7.5a1.463,1.463,0,0,0,1.25,1.607A1.463,1.463,0,0,0,22.083,26.357Zm-11.667,0v-7.5a1.463,1.463,0,0,0-1.25-1.607,1.463,1.463,0,0,0-1.25,1.607v7.5a1.463,1.463,0,0,0,1.25,1.607A1.463,1.463,0,0,0,10.417,26.357Z" transform="translate(0 -2.25)" fill="#fff"/>
</svg>
