<svg xmlns="http://www.w3.org/2000/svg" width="70" height="70" viewBox="0 0 70 70">
  <path id="Icon_awesome-shopping-basket" data-name="Icon awesome-shopping-basket" d="M70,31v2.5c0,2.071-1.306,3.75-2.917,3.75h-.972L62.938,65.81c-.411,3.695-2.872,6.439-5.775,6.439H12.837c-2.9,0-5.364-2.745-5.775-6.439L3.889,37.25H2.917C1.306,37.25,0,35.571,0,33.5V31c0-2.071,1.306-3.75,2.917-3.75H11.1L24.077,4.309c1.263-2.233,3.7-2.727,5.432-1.1a5.978,5.978,0,0,1,.858,6.984L20.718,27.25H49.282l-9.65-17.059a5.978,5.978,0,0,1,.858-6.984c1.737-1.624,4.169-1.13,5.432,1.1L58.9,27.25h8.184C68.694,27.25,70,28.929,70,31ZM37.917,58.5V41c0-2.071-1.306-3.75-2.917-3.75S32.083,38.929,32.083,41V58.5c0,2.071,1.306,3.75,2.917,3.75S37.917,60.571,37.917,58.5Zm13.611,0V41c0-2.071-1.306-3.75-2.917-3.75S45.694,38.929,45.694,41V58.5c0,2.071,1.306,3.75,2.917,3.75S51.528,60.571,51.528,58.5Zm-27.222,0V41c0-2.071-1.306-3.75-2.917-3.75S18.472,38.929,18.472,41V58.5c0,2.071,1.306,3.75,2.917,3.75S24.306,60.571,24.306,58.5Z" transform="translate(0 -2.25)" fill="#fff"/>
</svg>
