<svg xmlns="http://www.w3.org/2000/svg" width="25" height="25" viewBox="0 0 25 25">
  <path id="Icon_awesome-youtube-square" data-name="Icon awesome-youtube-square" d="M10.424,11.742l5.313,3.019L10.424,17.78ZM25,4.929V24.571a2.679,2.679,0,0,1-2.679,2.679H2.679A2.679,2.679,0,0,1,0,24.571V4.929A2.679,2.679,0,0,1,2.679,2.25H22.321A2.679,2.679,0,0,1,25,4.929Zm-2.344,9.838a26.814,26.814,0,0,0-.424-4.922,2.547,2.547,0,0,0-1.8-1.808c-1.579-.43-7.935-.43-7.935-.43s-6.356,0-7.935.43a2.547,2.547,0,0,0-1.8,1.808,26.781,26.781,0,0,0-.424,4.922,26.814,26.814,0,0,0,.424,4.922,2.51,2.51,0,0,0,1.8,1.78c1.579.424,7.935.424,7.935.424s6.356,0,7.935-.43a2.51,2.51,0,0,0,1.8-1.78,26.732,26.732,0,0,0,.424-4.916Z" transform="translate(0 -2.25)"/>
</svg>
